<?xml version="1.0" encoding="UTF-8"?>
<svg id="Layer_1" xmlns="http://www.w3.org/2000/svg" version="1.1" viewBox="0 0 19.32 18.41">
  <!-- Generator: Adobe Illustrator 30.5.1, SVG Export Plug-In . SVG Version: 2.1.4 Build 3)  -->
  <defs>
    <style>
      .st0 {
        fill: #fafafa;
      }

      .st1 {
        fill: #565e67;
      }

      .st2 {
        fill: #fefefe;
      }

      .st3 {
        fill: #fff;
      }

      .st4 {
        fill: #25313e;
      }

      .st5 {
        fill: #fdfdfd;
      }

      .st6 {
        fill: #d5d6d9;
      }

      .st7 {
        fill: #262f3e;
      }

      .st8 {
        fill: #545d66;
      }

      .st9 {
        fill: #f4f3f3;
      }

      .st10 {
        fill: #555e67;
      }

      .st11 {
        fill: #f7f6f7;
      }

      .st12 {
        fill: #555d67;
      }

      .st13 {
        fill: #fcfcfc;
      }

      .st14 {
        fill: #f8981d;
      }

      .st15 {
        fill: #555d66;
      }

      .st16 {
        fill: #fdfdfe;
      }
    </style>
  </defs>
  <g>
    <path class="st4" d="M19.02.04v.52s-18.75,0-18.75,0V.04c6.15-.02,12.59-.02,18.75,0Z"/>
    <path class="st6" d="M19.01.02s0,.02,0,.02H.26s0-.02,0-.02h18.75Z"/>
    <g>
      <path class="st2" d="M.26.02s.02.02,0,.02l.05.02v.45c6.15,0,12.51,0,18.66,0V.07s.04-.04.04-.04c-.03,0-.03,0,0-.02.09-.01.19-.02.3,0,.02,6.13.02,12.27,0,18.4-6.44,0-12.88,0-19.3-.01v-.02S0,.02,0,.02c.08-.02.19-.02.26,0Z"/>
      <g>
        <g>
          <path class="st8" d="M2.45,12.02c.11.49.62.55,1.1.42.04,0,.05.13,0,.15-.49.17-1.09.06-1.25-.46-.08-.28-.09-.58,0-.86.15-.53.78-.67,1.24-.49.04.01.03.13-.01.14-.46-.13-.97-.05-1.07.43-.05.22-.05.46,0,.68Z"/>
          <path class="st12" d="M9.04,11.26s.12-.04.15-.01v1.34s-.09.04-.11.02c-.02-.02-.03-.07-.04-.14-.18.13-.39.21-.62.18-.19-.03-.31-.18-.31-.37v-1.04c.06-.02.1-.02.15,0v1.01c0,.14.11.25.25.25.2,0,.38-.05.53-.18v-1.07Z"/>
          <path class="st8" d="M12.65,11.35c-.23-.03-.44.04-.61.18v1.08s-.1.03-.15.01v-1.34s.08-.05.11-.04c.04.02.04.08.04.15.2-.13.4-.21.63-.19.2.02.34.16.34.36v1.05s-.14.03-.15,0v-1c-.01-.12-.07-.23-.2-.25Z"/>
          <path class="st8" d="M6.19,11.35c-.21-.02-.43.04-.6.18v1.08s-.13.04-.16,0v-1.32c0-.05.08-.05.11-.04.04.02.04.08.04.15.19-.13.4-.21.63-.19.19.01.33.15.33.35v1.05s-.1.03-.15.01v-1.03c-.01-.12-.09-.22-.21-.23Z"/>
          <path class="st8" d="M7.76,12.07c.08.11.08.24.02.36-.12.28-.55.28-.88.15-.05-.02-.04-.14,0-.13.2.05.4.11.59.05.1-.03.16-.11.17-.2.01-.1-.06-.19-.16-.23l-.38-.15c-.16-.06-.24-.2-.23-.36s.11-.29.28-.34.37-.02.54.05c.03.02.03.12,0,.13-.29-.08-.62-.12-.67.12-.02.12.02.22.14.27l.33.13c.09.03.18.07.24.16Z"/>
          <path class="st15" d="M10.98,12.48s.03.1,0,.12c-.09.04-.19.05-.29.04-.16,0-.29-.13-.29-.29v-.96s-.23,0-.23,0c-.03,0-.04-.1-.01-.11l.25-.04.02-.37s.09-.03.12,0v.38s.43,0,.43,0c.02.04.02.09,0,.14h-.42s0,.96,0,.96c0,.1.08.17.18.16l.25-.02Z"/>
          <path class="st10" d="M9.79,12.45c0,.08.23-.02.21.12-.01.1-.22.08-.3.02-.04-.03-.08-.1-.08-.17v-1.8c.05-.02.13-.02.16.01v1.83Z"/>
          <path class="st10" d="M11.45,12.6s-.15.03-.16,0v-1.33s.1-.03.15-.01v1.35Z"/>
          <path class="st10" d="M11.31,10.93c-.08-.05-.07-.16,0-.21.05-.04.13-.02.16.02.03.04.04.11,0,.16-.02.04-.09.08-.16.04Z"/>
          <g>
            <path class="st8" d="M13.47,12.98c.37.13.8.14.89-.22.03-.11.03-.22.02-.34-.11.08-.21.13-.34.16-.29.06-.56-.11-.65-.39-.09-.31-.02-.77.24-.92.24-.14.53-.09.75.09.01-.06.02-.11.05-.12.02-.01.12-.01.12.02v1.39c0,.31-.23.53-.54.56-.18.01-.36,0-.52-.09-.03-.02-.03-.09,0-.13Z"/>
            <path class="st3" d="M13.96,12.46c-.22,0-.37-.12-.42-.31-.08-.3-.01-.7.25-.78.21-.06.44,0,.59.16v.76c-.12.1-.25.17-.42.18Z"/>
          </g>
          <g>
            <path class="st8" d="M4.47,12.66c-.31,0-.54-.16-.62-.45-.05-.2-.05-.42.01-.61.08-.26.29-.4.55-.41.3-.01.55.14.62.44.05.2.05.41,0,.61-.08.26-.29.41-.57.42Z"/>
            <path class="st3" d="M4.45,12.52c-.2,0-.35-.09-.41-.27-.08-.22-.07-.45,0-.67.07-.18.23-.25.41-.25s.34.08.41.26c.08.21.08.45,0,.66-.06.17-.23.26-.42.26Z"/>
          </g>
        </g>
        <g>
          <path class="st10" d="M5.36,9.32v.47c-.08.01-.14.01-.2,0v-.63s.15,0,.21.03c.11-.07.33-.12.38.04l.02.55c-.07.01-.12.01-.19,0v-.47c-.01-.08-.22-.07-.22,0Z"/>
          <path class="st10" d="M4.16,9.17c.06-.03.13-.02.2-.01l-.24.64c-.07.01-.13.01-.19,0l-.24-.64h.21s.14.46.14.46l.13-.45Z"/>
          <path class="st10" d="M6.15,9.62c.06.07.16.04.24.03.03,0,.05.09.01.12-.11.07-.29.07-.39-.03-.12-.12-.13-.35-.03-.49.09-.12.29-.14.41-.07.03.02.02.09,0,.11-.07,0-.18-.04-.24.02-.07.07-.08.23,0,.31Z"/>
          <g>
            <path class="st8" d="M2.63,9.6h-.31s-.06.19-.06.19c-.07.01-.14.01-.21,0l.31-.87h.21s.31.87.31.87c-.07.01-.14.01-.21,0l-.06-.19Z"/>
            <polygon class="st11" points="2.59 9.46 2.37 9.46 2.48 9.12 2.59 9.46"/>
          </g>
          <g>
            <path class="st8" d="M7.65,9.77c-.07.02-.15.08-.24.04-.23-.08-.26-.37-.16-.54.08-.14.28-.18.4-.08v-.33s.2,0,.2,0v.92c-.07.05-.14-.02-.19-.02Z"/>
            <path class="st0" d="M7.64,9.62c0,.06-.12.06-.16.04-.12-.05-.12-.28-.04-.37.03-.04.16-.04.19,0,.02.1.02.2,0,.32Z"/>
          </g>
          <g>
            <path class="st8" d="M3.41,9.76c-.07.03-.15.08-.24.05-.07-.03-.14-.08-.18-.17-.06-.17-.03-.4.13-.47.09-.04.19-.03.28.02v-.32s.19,0,.19,0v.93c-.07.04-.14,0-.19-.03Z"/>
            <path class="st13" d="M3.4,9.62c0,.07-.12.06-.16.04-.12-.06-.11-.31-.02-.37.04-.03.17-.04.18.02.02.1.02.2,0,.31Z"/>
          </g>
          <g>
            <path class="st12" d="M4.42,9.58c.03-.15.19-.18.38-.16.02-.04.01-.13-.04-.14-.09-.03-.2,0-.28.02-.03,0-.03-.09,0-.11.18-.1.5-.08.5.13v.48c-.06.02-.13.01-.18-.04-.08.07-.21.1-.31.03-.07-.05-.09-.13-.07-.2Z"/>
            <path class="st9" d="M4.81,9.53c.02.08,0,.13-.07.15-.05.02-.08,0-.11-.02-.03-.03-.03-.1.01-.13.06-.02.12-.01.17,0Z"/>
          </g>
          <g>
            <path class="st10" d="M6.78,9.66c.1.03.19,0,.28-.02.01.05.01.07,0,.13-.14.05-.33.08-.45-.03s-.15-.36-.04-.5.35-.15.47-.02c.07.08.06.2.04.29h-.39c-.01.06.02.13.1.15Z"/>
            <path class="st0" d="M6.93,9.39h-.25c0-.09.05-.13.11-.13.07,0,.14,0,.14.13Z"/>
          </g>
        </g>
        <g>
          <path class="st10" d="M7.87,14.14c-.22,0-.41.06-.57.18v1.08s-.1.04-.15.01v-1.37c.06-.01.12-.01.13.01.02.02.01.08.02.13.19-.13.4-.21.63-.19.19.01.34.15.34.35v1.05s-.15.04-.15,0v-1.01c-.01-.13-.11-.23-.25-.23Z"/>
          <path class="st8" d="M6.83,15.26s.04.1,0,.12c-.08.05-.17.04-.27.05-.16,0-.31-.11-.31-.27v-.98s-.22,0-.22,0c-.05,0-.06-.1-.02-.11l.23-.03.03-.38s.07-.01.12,0v.38s.43,0,.43,0c.03,0,.03.12,0,.12h-.42s0,.95,0,.95c0,.08.06.14.13.16.1.01.17,0,.29-.02Z"/>
          <path class="st12" d="M10.78,14.16c-.04.05-.38-.05-.51.22l-.03,1.02s-.15.04-.15,0v-1.33s.12-.04.12,0l.04.17c.15-.17.34-.23.53-.18,0,.05,0,.09-.01.11Z"/>
          <path class="st1" d="M5.91,14.16s-.37-.05-.51.22l-.02,1.01c0,.05-.13.06-.15.01v-1.33s.1-.03.13-.02c.01.05,0,.1.04.17.14-.16.33-.22.52-.17,0,.05,0,.09-.01.11Z"/>
          <g>
            <path class="st8" d="M2.99,14.64h-.54s0,.74,0,.74c0,.05-.06.05-.09.05-.05,0-.07-.03-.07-.09v-1.8s.73,0,.73,0c.31,0,.51.27.5.56s-.21.54-.53.54Z"/>
            <path class="st16" d="M3.34,14.07c.03.23-.12.42-.34.42h-.55s0-.82,0-.82h.57c.2,0,.34.18.32.4Z"/>
          </g>
          <g>
            <path class="st8" d="M3.76,15.03c0-.22.15-.36.36-.4.18-.03.35,0,.53.05v-.31c0-.29-.44-.26-.77-.16-.03,0-.04-.11-.01-.12.2-.09.42-.11.64-.08.18.03.31.16.31.34v1.01c0,.06-.06.08-.1.06-.04-.02-.05-.08-.05-.15-.16.1-.32.19-.51.18-.23,0-.39-.18-.39-.42Z"/>
            <path class="st3" d="M4.66,15.12c-.16.12-.38.21-.59.16-.13-.03-.16-.18-.15-.29.03-.27.41-.27.73-.19v.32Z"/>
          </g>
          <g>
            <path class="st8" d="M8.81,15.01c.11.36.52.35.9.22.1.17-.2.23-.48.23-.26,0-.48-.13-.56-.38-.07-.21-.07-.44-.01-.65.07-.28.31-.43.6-.43.25,0,.45.14.49.39.02.12.02.24,0,.36h-.95c0,.09,0,.17.03.25Z"/>
            <path class="st5" d="M9.59,14.63h-.81c0-.14.03-.28.14-.38.15-.14.42-.15.58-.02.12.1.12.27.1.41Z"/>
          </g>
        </g>
      </g>
    </g>
  </g>
  <g>
    <path class="st7" d="M5.91,4.2s.11.05.2.07c.09.02.17.03.26.03s.17-.01.24-.03.14-.05.19-.1c.05-.04.09-.09.12-.15.03-.06.04-.13.04-.2,0-.09-.03-.17-.08-.24-.05-.07-.14-.12-.26-.16l-.24-.08c-.09-.03-.15-.06-.19-.09-.03-.03-.05-.07-.05-.12,0-.07.03-.12.08-.15.05-.03.13-.05.23-.05.12,0,.23.02.33.07.03.01.05.02.07.02.03,0,.04-.02.04-.05v-.08s0-.04-.01-.06c-.01-.01-.03-.03-.05-.04-.02,0-.04-.02-.07-.03-.03,0-.06-.02-.1-.03-.03,0-.07-.01-.11-.02-.04,0-.08,0-.12,0-.08,0-.15,0-.22.03-.07.02-.13.05-.18.09-.05.04-.09.09-.12.14-.03.05-.05.12-.05.19,0,.09.03.17.09.25.06.08.15.13.27.17l.25.08c.08.03.14.06.17.09.03.03.05.07.05.12,0,.07-.03.12-.09.16-.06.04-.14.06-.25.06-.07,0-.14,0-.2-.02-.07-.01-.13-.03-.19-.06-.02,0-.03-.01-.04-.02-.01,0-.02,0-.03,0-.03,0-.04.02-.04.05v.09s0,.03.01.05c0,.02.02.03.05.05"/>
    <path class="st7" d="M3.02,3.37c-.06,0-.12-.01-.18-.01-.18,0-.32.04-.42.13-.1.09-.16.21-.16.35,0,.14.04.25.13.33.08.08.2.12.34.12.2,0,.37-.08.5-.24.02.04.04.07.05.1.02.03.04.06.06.08.02.02.03.02.05.02.01,0,.03,0,.04-.01l.11-.07s.03-.03.03-.05c0-.01,0-.02-.01-.04-.02-.04-.04-.08-.06-.12-.01-.04-.02-.09-.02-.15v-.56c0-.19-.05-.33-.14-.42-.09-.09-.24-.14-.45-.14-.09,0-.18.01-.27.03-.08.02-.16.05-.22.08-.02.01-.04.02-.05.04,0,.01-.01.03-.01.06v.08s.01.05.04.05c0,0,.01,0,.03,0,.01,0,.03-.01.06-.02.06-.02.12-.04.18-.06.06-.01.12-.02.18-.02.13,0,.22.03.28.08.05.05.08.14.08.27v.13c-.07-.02-.13-.03-.2-.04M3.22,3.67c0,.06,0,.11-.02.15-.01.04-.03.08-.06.11-.05.05-.1.09-.16.11-.06.02-.12.03-.18.03-.08,0-.14-.02-.18-.06-.04-.04-.06-.1-.06-.18,0-.09.03-.15.08-.2.06-.05.14-.07.25-.07.05,0,.11,0,.16.01.05,0,.11.02.16.03v.07Z"/>
    <path class="st7" d="M4.07,4.17s.02.06.04.07c.01.01.04.02.07.02h.15s.05,0,.07-.02c.01-.01.02-.04.03-.07l.26-1.1.27,1.1s.02.06.03.07c.01.01.04.02.07.02h.15s.05,0,.07-.02c.01-.01.03-.03.04-.07l.41-1.32s0-.03.01-.04c0-.01,0-.02,0-.03,0-.03-.01-.04-.04-.04h-.16s-.05,0-.07.02c-.01.01-.02.03-.03.07l-.3,1.15-.27-1.15s-.02-.06-.03-.07c-.01-.01-.04-.02-.07-.02h-.14s-.05,0-.07.02c-.01.01-.02.03-.03.07l-.27,1.13-.29-1.13s-.02-.06-.03-.07c-.01-.01-.04-.02-.07-.02h-.17s-.04.01-.04.04c0,.01,0,.04.01.07l.4,1.32Z"/>
    <path class="st14" d="M6.62,5c-.63.27-1.32.4-1.94.4-.93,0-1.82-.25-2.55-.68-.06-.04-.11.03-.06.08.67.61,1.56.97,2.54.97.7,0,1.52-.22,2.08-.64.09-.07.01-.17-.08-.13"/>
    <path class="st14" d="M6.26,4.76s-.04.08.01.08c.18-.02.59-.07.66.02.07.09-.08.47-.15.64-.02.05.02.07.07.03.3-.25.38-.78.32-.86-.06-.08-.59-.14-.91.09"/>
    <path class="st7" d="M8.52,3.9s-.02,0-.02-.02v-.92s0-.02.02-.02h.03s.02,0,.02.02v.06s.09-.06.13-.07c.04-.02.08-.02.12-.02.09,0,.16.03.21.09.05.06.08.15.08.26s-.03.2-.08.27c-.05.07-.13.1-.22.1-.08,0-.16-.03-.23-.09v.34s0,.02-.02.02h-.04ZM8.8,3.56c.07,0,.13-.02.17-.07.04-.05.06-.12.06-.22,0-.19-.07-.29-.22-.29-.08,0-.15.03-.23.09v.4s.07.06.11.07c.04.01.07.02.11.02"/>
    <path class="st7" d="M9.44,3.63c-.06,0-.11-.02-.15-.05-.04-.04-.06-.08-.06-.14,0-.07.02-.12.07-.16.05-.04.11-.06.19-.06.06,0,.13.01.19.03v-.11c0-.06-.01-.09-.04-.12-.03-.02-.07-.04-.13-.04s-.13.01-.2.03c0,0-.02,0-.02,0,0,0-.01,0-.01-.02v-.02s0-.01,0-.02c0,0,0,0,.01-.01.07-.03.15-.04.23-.04s.14.02.18.05c.04.03.06.08.06.15v.48s0,.02-.02.02h-.03s-.02,0-.02-.02v-.06c-.08.06-.16.09-.25.09M9.46,3.56s.07,0,.11-.02c.04-.01.08-.03.12-.06v-.17c-.06-.02-.12-.02-.18-.02-.13,0-.19.05-.19.15,0,.04.01.07.03.1.02.02.06.03.1.03"/>
    <path class="st7" d="M10,3.62s-.02,0-.02-.02v-.64s0-.02.02-.02h.03s.02,0,.02.02v.08s.08-.06.11-.08c.03-.02.07-.02.11-.02.01,0,.03,0,.04,0,.01,0,.02,0,.02.02v.03s0,0,0,.01c0,0,0,0-.01,0,0,0-.01,0-.02,0,0,0-.02,0-.03,0-.04,0-.08,0-.11.02s-.06.04-.09.07v.5s0,.02-.02.02h-.04Z"/>
    <path class="st7" d="M10.68,3.63c-.05,0-.09-.01-.12-.04-.03-.03-.04-.07-.04-.12v-.46h-.11s-.02,0-.02-.02h0s0-.03,0-.03c0,0,0,0,.02,0h.11s0-.19,0-.19c0,0,0-.01,0-.02,0,0,0,0,.01,0h.02s.02,0,.02.02v.18h.2s.02,0,.02.02v.03s0,.02-.02.02h-.2v.45s0,.06.02.08c.02.02.04.02.08.02.03,0,.05,0,.07,0,0,0,.02,0,.02,0,0,0,.01,0,.01,0,0,0,.02,0,.02.02v.02s0,.03-.02.03c-.04.01-.08.02-.12.02"/>
    <path class="st7" d="M10.98,3.62s-.02,0-.02-.02v-.64s0-.02.02-.02h.03s.02,0,.02.02v.06s.1-.06.15-.07c.05-.02.1-.03.14-.03.07,0,.12.02.15.05.03.03.05.09.05.15v.48s0,.02-.02.02h-.04s-.02,0-.02-.02v-.44c0-.06-.01-.1-.03-.13-.02-.03-.06-.04-.11-.04-.09,0-.18.03-.27.09v.53s0,.02-.02.02h-.04Z"/>
    <path class="st7" d="M12.03,3.64c-.11,0-.19-.03-.24-.09-.05-.06-.08-.15-.08-.27,0-.11.03-.2.08-.27.05-.06.13-.09.23-.09.08,0,.15.02.19.07.04.05.07.11.07.2,0,.04,0,.06,0,.08,0,.01-.01.02-.02.02h-.46c0,.1.02.17.06.21.04.05.1.07.19.07.07,0,.13-.01.19-.03.01,0,.02,0,.02,0,0,0,0,0,0,0,0,0,0,0,0,.01v.02s0,.02-.02.03c-.07.03-.14.05-.21.05M12.19,3.23s0-.03,0-.04c0-.07-.02-.11-.05-.15-.03-.03-.08-.05-.14-.05-.14,0-.22.08-.23.24h.41Z"/>
    <path class="st7" d="M12.46,3.62s-.02,0-.02-.02v-.64s0-.02.02-.02h.03s.02,0,.02.02v.08s.08-.06.11-.08c.03-.02.07-.02.11-.02.01,0,.03,0,.04,0,.01,0,.02,0,.02.02v.03s0,0,0,.01c0,0,0,0-.01,0,0,0-.01,0-.02,0,0,0-.02,0-.03,0-.04,0-.08,0-.11.02s-.06.04-.09.07v.5s0,.02-.02.02h-.04Z"/>
    <path class="st7" d="M8.52,5.13s-.02,0-.02-.02v-.64s0-.02.02-.02h.03s.02,0,.02.02v.06s.1-.06.15-.07c.05-.02.1-.03.14-.03.07,0,.12.02.15.05.03.03.05.09.05.15v.48s0,.02-.02.02h-.04s-.02,0-.02-.02v-.44c0-.06-.01-.1-.03-.13-.02-.03-.06-.04-.11-.04-.09,0-.18.03-.27.09v.53s0,.02-.02.02h-.04Z"/>
    <path class="st7" d="M9.57,5.15c-.11,0-.19-.03-.24-.09-.05-.06-.08-.15-.08-.27,0-.11.03-.2.08-.27.05-.06.13-.09.23-.09.08,0,.15.02.19.07.04.05.07.11.07.2,0,.04,0,.06,0,.08,0,.01-.01.02-.02.02h-.46c0,.1.02.17.06.21.04.05.1.07.19.07.07,0,.13-.01.19-.03.01,0,.02,0,.02,0,0,0,0,0,0,0,0,0,0,0,0,.01v.02s0,.02-.02.03c-.07.03-.14.05-.21.05M9.73,4.74s0-.03,0-.04c0-.07-.02-.11-.05-.15-.03-.03-.08-.05-.14-.05-.14,0-.22.08-.23.24h.41Z"/>
    <path class="st7" d="M10.19,5.14c-.05,0-.09-.01-.12-.04-.03-.03-.04-.07-.04-.12v-.46h-.11s-.02,0-.02-.02h0s0-.03,0-.03c0,0,0,0,.02,0h.11s0-.19,0-.19c0,0,0-.01,0-.02,0,0,0,0,.01,0h.02s.02,0,.02.02v.18h.2s.02,0,.02.02v.03s0,.02-.02.02h-.2v.45s0,.06.02.08c.02.02.04.02.08.02.03,0,.05,0,.07,0,0,0,.02,0,.02,0,0,0,.01,0,.01,0,0,0,.02,0,.02.02v.02s0,.03-.02.03c-.04.01-.08.02-.12.02"/>
    <path class="st7" d="M10.64,5.13s-.02,0-.03-.02l-.22-.63s0-.02,0-.02c0,0,0-.01.02-.01h.04s.02,0,.02.02l.19.58.16-.58s.01-.02.03-.02h.05s.02,0,.03.02l.16.58.19-.58s.01-.02.02-.02h.04s.02,0,.02.01c0,0,0,.01,0,.02l-.22.63s-.01.02-.03.02h-.04s-.02,0-.03-.02l-.16-.58-.16.58s-.01.02-.03.02h-.04Z"/>
    <path class="st7" d="M11.77,5.15c-.1,0-.18-.03-.23-.1-.06-.06-.08-.15-.08-.27s.03-.2.08-.27c.06-.06.13-.1.23-.1s.18.03.23.1c.06.06.08.15.08.27s-.03.2-.08.27c-.06.06-.13.1-.23.1M11.77,5.08c.16,0,.24-.1.24-.29s-.08-.29-.24-.29-.24.1-.24.29.08.29.24.29"/>
    <path class="st7" d="M12.28,5.13s-.02,0-.02-.02v-.64s0-.02.02-.02h.03s.02,0,.02.02v.08s.08-.06.11-.08c.03-.02.07-.02.11-.02.01,0,.03,0,.04,0,.01,0,.02,0,.02.02v.03s0,0,0,.01c0,0,0,0-.01,0,0,0-.01,0-.02,0,0,0-.02,0-.03,0-.04,0-.08,0-.11.02s-.06.04-.09.07v.5s0,.02-.02.02h-.04Z"/>
    <path class="st7" d="M12.75,5.13s-.02,0-.02-.02v-.97s0-.02.02-.02h.04s.02,0,.02.02v.61l.33-.29s.02-.01.03-.01h.05s.02,0,.02.01c0,0,0,.01-.02.02l-.33.29.36.33s.01.01.01.02c0,0,0,.01-.02.01h-.06s-.02,0-.03-.01l-.35-.32v.31s0,.02-.02.02h-.04Z"/>
  </g>
</svg>