<?xml version="1.0" encoding="UTF-8"?>
<svg id="Layer_1" xmlns="http://www.w3.org/2000/svg" version="1.1" xmlns:xlink="http://www.w3.org/1999/xlink" viewBox="0 0 136.04 48.74">
  <!-- Generator: Adobe Illustrator 30.5.1, SVG Export Plug-In . SVG Version: 2.1.4 Build 3)  -->
  <defs>
    <style>
      .st0 {
        fill: #fdfefe;
      }

      .st1 {
        fill: #045388;
      }

      .st2 {
        fill: #fff;
      }

      .st3 {
        fill: #c12033;
      }

      .st4 {
        fill: #feffff;
      }

      .st5 {
        fill: url(#linear-gradient);
      }
    </style>
    <linearGradient id="linear-gradient" x1="52.55" y1="26.62" x2="136.04" y2="26.62" gradientUnits="userSpaceOnUse">
      <stop offset="0" stop-color="#fff"/>
      <stop offset=".05" stop-color="#ebebeb"/>
      <stop offset=".26" stop-color="#a7a7a7"/>
      <stop offset=".45" stop-color="#6e6e6e"/>
      <stop offset=".62" stop-color="#424242"/>
      <stop offset=".78" stop-color="#222323"/>
      <stop offset=".91" stop-color="#0e0f0f"/>
      <stop offset="1" stop-color="#080909"/>
    </linearGradient>
  </defs>
  <g>
    <g>
      <path class="st3" d="M11.44,48.74s.41-5.66,3.68-13.37h-2.39c-.88,4.32-1.28,8.81-1.28,13.37Z"/>
      <path class="st3" d="M61.76,0c-13.13.12-29.3,4.79-38.47,14.24-1.17,1.17-2.22,2.45-3.15,3.79l6.42.06c.06-.06.12-.18.23-.23C40.39,3.62,64.85.12,64.85.12c-.99-.06-2.04-.12-3.09-.12Z"/>
    </g>
    <polygon class="st1" points="0 22.59 1.4 22.59 1.4 31.23 0 31.23 0 32.63 5.02 32.63 5.02 31.23 3.56 31.23 3.56 22.59 5.02 22.59 5.02 21.13 0 21.13 0 22.59"/>
    <path class="st1" d="M14.36,26.97c-.53-.41-1.05-.58-1.69-.82l-1.4-.53c-.76-.29-1.69-.64-1.69-1.58,0-.47.12-.88.41-1.17.35-.41.88-.47,1.34-.47,1.34,0,1.98.93,2.04,2.22v.35h1.87v-3.79h-1.81v.99c-.58-.93-1.69-1.17-2.69-1.17-1.34,0-2.22.47-2.69,1.17-.23.35-.7,1.17-.7,2.16,0,.76.23,1.46.76,1.98.58.58,1.17.82,1.93,1.11l1.46.58c.88.35,1.69.64,1.69,1.81s-.88,1.63-1.87,1.63c-1.58,0-2.1-1.34-2.1-2.74h-1.93v4.03h1.81v-1.05c.58.99,1.63,1.28,2.69,1.28.93,0,2.28-.23,2.98-1.28.41-.53.7-1.11.7-2.04,0-.29-.06-.64-.12-.93-.23-.82-.41-1.28-.99-1.75Z"/>
    <polygon class="st1" points="18.85 31.23 18.85 32.63 24.17 32.63 24.17 31.23 22.65 31.23 22.65 22.65 24.46 22.65 24.46 25.04 26.32 25.04 26.32 21.13 16.75 21.13 16.75 25.04 18.62 25.04 18.62 22.65 20.43 22.65 20.43 31.23 18.85 31.23"/>
    <path class="st1" d="M30,32.4c.7.35,1.46.47,2.22.47,1.11,0,2.22-.12,3.33-.12h2.86v-1.52h-.76c-.35,0-.7.06-1.05.06s-.7.12-1.05.12c1.63-.93,2.16-2.92,2.16-4.67,0-1.11-.29-2.33-.82-3.33-.58-.99-1.34-1.69-2.45-2.1-.7-.23-1.4-.35-2.16-.35-1.46,0-2.98.53-3.91,1.69-1.05,1.28-1.4,2.74-1.4,4.38,0,1.46.29,2.86,1.23,4.03.47.47,1.28,1.05,1.81,1.34h0ZM29.94,23.99c.47-.99,1.4-1.63,2.51-1.63s1.81.53,2.39,1.52c.53.88.64,2.16.64,3.21,0,1.87-.82,4.38-3.04,4.38-2.45,0-3.04-2.45-3.04-4.44,0-1.05.12-2.1.53-3.04Z"/>
    <path class="st1" d="M47.51,32.28c.99-.53,1.58-1.52,1.58-2.63,0-1.46-.93-2.86-2.51-2.92,1.46-.23,2.28-1.17,2.28-2.63,0-.82-.35-1.75-.99-2.28-.76-.58-1.63-.64-2.57-.64h-5.78v1.46h1.34v8.58h-1.34v1.46h5.08c.93-.06,2.16,0,2.92-.41ZM43.08,22.59h.93c.53,0,1.34-.06,1.81.12.64.29.82.88.82,1.52,0,.53-.23,1.05-.58,1.4-.41.35-1.17.35-1.69.35h-1.28v-3.39ZM43.08,31.23v-3.74h1.46c.58,0,1.11-.06,1.63.29s.76.88.76,1.52c0,.58-.18,1.05-.64,1.52-.47.41-1.11.41-1.69.41h-1.52Z"/>
    <g>
      <path class="st1" d="M17.77,35.44h.77v4.22h-.77v-4.22Z"/>
      <path class="st1" d="M19.48,37.06c0-.19,0-.38-.02-.51h.7c0,.16.02.32.02.48h.02,0c.11-.19.32-.53.83-.53.71,0,.92.53.92,1.15v2.01h-.75v-1.87c0-.48-.12-.68-.43-.68-.39,0-.53.33-.53.73v1.81h-.75v-2.6h0Z"/>
      <path class="st1" d="M23.03,35.9l.75-.23v.87h.62v.55h-.62v1.61c0,.33.12.43.34.43.13,0,.23-.04.28-.07v.53c-.11.05-.28.1-.5.1-.56,0-.87-.25-.87-.91v-1.7h-.5v-.55h.5v-.64h0Z"/>
      <path class="st1" d="M27.31,39.51c-.16.07-.48.2-.93.2-1,0-1.44-.72-1.44-1.56,0-.93.49-1.65,1.28-1.65.67,0,1.24.39,1.24,1.66v.15h-1.8c0,.53.21.85.79.85.46,0,.68-.14.82-.24l.04.59h0ZM26.75,37.83c0-.55-.18-.83-.52-.83-.39,0-.56.42-.56.83h1.08Z"/>
      <path class="st1" d="M28.22,37.06c0-.19,0-.38-.02-.51h.68c0,.19.02.38.02.57h.01c.09-.24.33-.62.79-.62.05,0,.09.01.13.02v.7c-.07-.02-.13-.03-.21-.03-.31,0-.65.19-.65.77v1.7h-.75v-2.6h0Z"/>
      <path class="st1" d="M30.47,37.06c0-.19,0-.38-.02-.51h.7c0,.16.02.32.02.48h.02,0c.11-.19.32-.53.83-.53.71,0,.92.53.92,1.15v2.01h-.75v-1.87c0-.48-.12-.68-.43-.68-.39,0-.53.33-.53.73v1.81h-.75v-2.6h0Z"/>
      <path class="st1" d="M33.9,36.73c.21-.1.51-.23.99-.23.97,0,1.19.47,1.19,1.25v1.36c0,.22.02.43.04.55h-.68c-.04-.12-.04-.27-.04-.42h-.01c-.19.25-.42.47-.87.47-.48,0-.93-.33-.93-.91,0-.85.69-1.06,1.64-1.06h.15v-.11c0-.31-.15-.59-.58-.59-.37,0-.71.18-.85.3l-.04-.6h0ZM35.37,38.13h-.07c-.64,0-1.02.13-1.02.59,0,.28.19.48.48.48.45,0,.61-.33.61-.89v-.17h0Z"/>
      <path class="st1" d="M37.19,35.9l.75-.23v.87h.62v.55h-.62v1.61c0,.33.12.43.34.43.13,0,.23-.04.28-.07v.53c-.11.05-.28.1-.5.1-.56,0-.87-.25-.87-.91v-1.7h-.5v-.55h.5v-.64h0Z"/>
      <path class="st1" d="M39.25,35.22h.77v.74h-.77v-.74ZM39.26,36.55h.75v3.11h-.75v-3.11Z"/>
      <path class="st1" d="M42.19,36.5c.64,0,1.37.33,1.37,1.6s-.73,1.61-1.37,1.61-1.37-.3-1.37-1.61.74-1.6,1.37-1.6ZM42.19,39.17c.48,0,.59-.56.59-1.08s-.11-1.07-.59-1.07-.6.55-.6,1.07.11,1.08.6,1.08Z"/>
      <path class="st1" d="M44.29,37.06c0-.19,0-.38-.02-.51h.7c0,.16.02.32.02.48h.02,0c.11-.19.32-.53.83-.53.71,0,.92.53.92,1.15v2.01h-.75v-1.87c0-.48-.12-.68-.43-.68-.39,0-.53.33-.53.73v1.81h-.75v-2.6h0Z"/>
      <path class="st1" d="M47.72,36.73c.21-.1.51-.23.99-.23.97,0,1.19.47,1.19,1.25v1.36c0,.22.02.43.04.55h-.68c-.04-.12-.04-.27-.04-.42h-.01c-.19.25-.42.47-.87.47-.48,0-.93-.33-.93-.91,0-.85.69-1.06,1.64-1.06h.15v-.11c0-.31-.15-.59-.58-.59-.38,0-.71.18-.85.3l-.04-.6h0ZM49.2,38.13h-.07c-.64,0-1.02.13-1.02.59,0,.28.19.48.48.48.45,0,.61-.33.61-.89v-.17h0Z"/>
      <path class="st1" d="M50.81,35.12h.75v4.53h-.75v-4.53Z"/>
      <path class="st1" d="M54.23,38.84c.15.1.48.26.89.26.34,0,.64-.19.64-.61,0-.3-.18-.44-.55-.64l-.39-.22c-.42-.23-.69-.56-.69-1.11,0-.76.62-1.15,1.33-1.15.45,0,.76.11.88.15l-.04.65c-.19-.07-.44-.18-.79-.18-.39,0-.59.21-.59.5,0,.31.21.44.45.57l.45.25c.5.28.73.54.73,1.14,0,.86-.61,1.27-1.41,1.27-.42,0-.75-.06-.96-.19l.04-.69h0Z"/>
      <path class="st1" d="M58.63,36.5c.64,0,1.37.33,1.37,1.6s-.73,1.61-1.37,1.61-1.37-.3-1.37-1.61.74-1.6,1.37-1.6ZM58.63,39.17c.48,0,.59-.56.59-1.08s-.11-1.07-.59-1.07-.6.55-.6,1.07.11,1.08.6,1.08Z"/>
      <path class="st1" d="M60.97,37.09h-.52v-.55h.52v-.64c0-.45.21-.86.89-.86.2,0,.39.04.54.07l-.03.54c-.09-.02-.19-.05-.3-.05-.22,0-.36.15-.36.39v.54h.57v.55h-.57v2.56h-.75v-2.56h0Z"/>
      <path class="st1" d="M63.16,35.9l.75-.23v.87h.62v.55h-.62v1.61c0,.33.12.43.34.43.13,0,.23-.04.28-.07v.53c-.11.05-.28.1-.5.1-.56,0-.87-.25-.87-.91v-1.7h-.5v-.55h.5v-.64h0Z"/>
      <path class="st1" d="M67.07,37.23h-.01l-.54,2.42h-.82l-.84-3.11h.77l.5,2.42h.01l.53-2.42h.85l.51,2.42h.01l.5-2.42h.73l-.83,3.11h-.82l-.56-2.42Z"/>
      <path class="st1" d="M69.93,36.73c.21-.1.51-.23.99-.23.97,0,1.19.47,1.19,1.25v1.36c0,.22.02.43.04.55h-.68c-.04-.12-.04-.27-.04-.42h-.01c-.19.25-.42.47-.87.47-.48,0-.93-.33-.93-.91,0-.85.69-1.06,1.64-1.06h.15v-.11c0-.31-.15-.59-.58-.59-.38,0-.71.18-.85.3l-.04-.6h0ZM71.41,38.13h-.07c-.64,0-1.02.13-1.02.59,0,.28.19.48.48.48.45,0,.61-.33.61-.89v-.17h0Z"/>
      <path class="st1" d="M72.97,37.06c0-.19,0-.38-.02-.51h.68c0,.19.02.38.02.57h.01c.09-.24.33-.62.79-.62.05,0,.09.01.13.02v.7c-.07-.02-.13-.03-.21-.03-.31,0-.65.19-.65.77v1.7h-.75v-2.6h0Z"/>
      <path class="st1" d="M77.44,39.51c-.16.07-.48.2-.93.2-1,0-1.44-.72-1.44-1.56,0-.93.49-1.65,1.28-1.65.67,0,1.24.39,1.24,1.66v.15h-1.8c0,.53.21.85.79.85.46,0,.68-.14.82-.24l.04.59h0ZM76.88,37.83c0-.55-.18-.83-.52-.83-.39,0-.56.42-.56.83h1.08Z"/>
      <path class="st1" d="M18.38,42.65h-.94v-.62h2.65v.62h-.94v3.6h-.77v-3.6Z"/>
      <path class="st1" d="M22.47,46.1c-.16.07-.48.2-.93.2-1,0-1.44-.72-1.44-1.56,0-.93.49-1.65,1.28-1.65.67,0,1.24.39,1.24,1.66v.15h-1.8c0,.53.21.85.79.85.46,0,.68-.14.82-.24l.04.59h0ZM21.91,44.43c0-.55-.18-.83-.52-.83-.39,0-.56.42-.56.83h1.08Z"/>
      <path class="st1" d="M23.27,45.52c.12.05.43.21.78.21.27,0,.48-.07.48-.31,0-.12-.06-.24-.33-.39l-.31-.18c-.31-.19-.66-.39-.66-.88,0-.43.42-.88,1.08-.88.4,0,.71.1.78.13l-.04.58c-.19-.07-.39-.14-.66-.14-.3,0-.43.11-.43.3,0,.17.13.26.35.4l.37.24c.39.25.58.42.58.79,0,.57-.48.92-1.16.92-.39,0-.71-.09-.86-.15l.04-.62h0Z"/>
      <path class="st1" d="M26.24,42.5l.75-.23v.87h.62v.55h-.62v1.61c0,.33.12.43.34.43.13,0,.23-.04.28-.07v.53c-.11.05-.28.1-.5.1-.56,0-.87-.25-.87-.91v-1.7h-.5v-.55h.5v-.64h0Z"/>
      <path class="st1" d="M28.29,41.81h.77v.74h-.77v-.74ZM28.3,43.14h.75v3.11h-.75v-3.11Z"/>
      <path class="st1" d="M29.95,43.65c0-.19,0-.37-.02-.51h.7c0,.16.02.32.02.48h.02,0c.11-.19.32-.53.83-.53.71,0,.92.53.92,1.15v2.01h-.75v-1.87c0-.48-.12-.68-.43-.68-.39,0-.53.33-.53.73v1.81h-.75v-2.6h0Z"/>
      <path class="st1" d="M33.33,46.73c.18.1.53.27.92.27.71,0,.82-.49.82-.98v-.3h-.01c-.12.24-.33.53-.82.53-.44,0-1.09-.29-1.09-1.55,0-.86.31-1.61,1.12-1.61.45,0,.66.26.82.53h.02c0-.16.02-.32.02-.48h.68c-.01.16-.02.33-.02.49v2.3c0,.97-.3,1.67-1.44,1.67-.5,0-.89-.13-1.07-.19l.04-.66h0ZM34.41,45.7c.47,0,.66-.34.66-1.05,0-.65-.25-1-.6-1-.39,0-.54.37-.54,1,0,.73.24,1.04.49,1.04h0Z"/>
      <path class="st1" d="M40.09,46.31h-.13c-.88,0-1.68-.65-1.68-2.17s.8-2.17,1.68-2.17,1.68.65,1.68,2.17c0,1.05-.38,1.68-.9,1.97l.83.94h-.89l-.59-.74h0ZM39.95,45.72c.49,0,.88-.42.88-1.58s-.39-1.58-.88-1.58-.88.42-.88,1.58.39,1.58.88,1.58Z"/>
      <path class="st1" d="M44.86,45.74c0,.19,0,.38.02.51h-.7c0-.16-.02-.32-.02-.48h-.02s0,0,0,0c-.15.23-.34.53-.83.53-.71,0-.92-.53-.92-1.15v-2.01h.75v1.87c0,.48.13.68.45.68.4,0,.51-.36.51-.76v-1.78h.75v2.6h0Z"/>
      <path class="st1" d="M45.83,43.32c.21-.1.51-.23.99-.23.97,0,1.19.47,1.19,1.25v1.36c0,.22.02.43.04.55h-.68c-.04-.12-.04-.27-.04-.42h-.01c-.19.25-.42.47-.87.47-.48,0-.93-.33-.93-.91,0-.85.69-1.06,1.64-1.06h.15v-.11c0-.31-.15-.59-.58-.59-.37,0-.71.18-.85.3l-.04-.6h0ZM47.3,44.73h-.07c-.64,0-1.02.13-1.02.59,0,.28.19.48.48.48.45,0,.61-.33.61-.89v-.18h0Z"/>
      <path class="st1" d="M48.92,41.72h.75v4.53h-.75v-4.53Z"/>
      <path class="st1" d="M50.62,41.81h.77v.74h-.77v-.74ZM50.63,43.14h.75v3.11h-.75v-3.11Z"/>
      <path class="st1" d="M52.52,43.69h-.52v-.55h.52v-.64c0-.45.21-.86.89-.86.2,0,.39.04.54.07l-.03.54c-.09-.02-.19-.05-.3-.05-.22,0-.36.15-.36.39v.54h.57v.55h-.57v2.56h-.75v-2.56h0Z"/>
      <path class="st1" d="M54.49,41.81h.77v.74h-.77v-.74ZM54.5,43.14h.75v3.11h-.75v-3.11Z"/>
      <path class="st1" d="M58.26,46.17c-.18.07-.44.13-.74.13-1.03,0-1.46-.72-1.46-1.6s.46-1.61,1.5-1.61c.24,0,.51.07.65.13l-.04.59c-.13-.07-.32-.15-.53-.15-.57,0-.82.38-.82,1.05,0,.58.28,1.03.85,1.03.18,0,.43-.09.53-.15l.04.59h0Z"/>
      <path class="st1" d="M59.02,43.32c.21-.1.51-.23.99-.23.97,0,1.19.47,1.19,1.25v1.36c0,.22.02.43.04.55h-.68c-.04-.12-.04-.27-.04-.42h-.01c-.19.25-.42.47-.87.47-.48,0-.93-.33-.93-.91,0-.85.69-1.06,1.64-1.06h.15v-.11c0-.31-.15-.59-.58-.59-.38,0-.71.18-.85.3l-.04-.6h0ZM60.49,44.73h-.07c-.64,0-1.02.13-1.02.59,0,.28.19.48.48.48.45,0,.61-.33.61-.89v-.18h0Z"/>
      <path class="st1" d="M62.31,42.5l.75-.23v.87h.62v.55h-.62v1.61c0,.33.12.43.34.43.13,0,.23-.04.28-.07v.53c-.11.05-.28.1-.5.1-.56,0-.87-.25-.87-.91v-1.7h-.5v-.55h.5v-.64h0Z"/>
      <path class="st1" d="M64.37,41.81h.77v.74h-.77v-.74ZM64.38,43.14h.75v3.11h-.75v-3.11Z"/>
      <path class="st1" d="M67.31,43.09c.64,0,1.37.33,1.37,1.6s-.73,1.61-1.37,1.61-1.37-.3-1.37-1.61.74-1.6,1.37-1.6ZM67.31,45.77c.48,0,.59-.56.59-1.08s-.11-1.07-.59-1.07-.6.55-.6,1.07.11,1.08.6,1.08Z"/>
      <path class="st1" d="M69.41,43.65c0-.19,0-.37-.02-.51h.7c0,.16.02.32.02.48h.02,0c.11-.19.32-.53.83-.53.71,0,.92.53.92,1.15v2.01h-.75v-1.87c0-.48-.12-.68-.43-.68-.39,0-.53.33-.53.73v1.81h-.75v-2.6Z"/>
      <path class="st1" d="M72.61,45.52c.12.05.43.21.78.21.27,0,.48-.07.48-.31,0-.12-.06-.24-.33-.39l-.31-.18c-.31-.19-.66-.39-.66-.88,0-.43.42-.88,1.08-.88.4,0,.71.1.78.13l-.04.58c-.19-.07-.39-.14-.66-.14-.3,0-.43.11-.43.3,0,.17.13.26.35.4l.37.24c.39.25.58.42.58.79,0,.57-.48.92-1.16.92-.39,0-.71-.09-.86-.15l.04-.62h0Z"/>
      <path class="st1" d="M77.12,42.03h1.23c.87,0,1.27.33,1.27,1.04,0,.67-.42.87-.7.97h0c.33.09.8.31.8,1.02,0,.77-.56,1.18-1.31,1.18h-1.29v-4.22h0ZM77.87,43.8h.4c.38,0,.6-.28.6-.63s-.25-.57-.62-.57h-.38v1.2h0ZM77.87,45.66h.43c.42,0,.65-.25.65-.65,0-.37-.19-.65-.67-.65h-.4v1.29h0Z"/>
      <path class="st1" d="M81.81,43.09c.64,0,1.37.33,1.37,1.6s-.73,1.61-1.37,1.61-1.37-.3-1.37-1.61.74-1.6,1.37-1.6ZM81.81,45.77c.48,0,.59-.56.59-1.08s-.11-1.07-.59-1.07-.6.55-.6,1.07.11,1.08.6,1.08Z"/>
      <path class="st1" d="M84.06,43.32c.21-.1.51-.23.99-.23.97,0,1.19.47,1.19,1.25v1.36c0,.22.02.43.04.55h-.68c-.04-.12-.04-.27-.04-.42h-.01c-.19.25-.42.47-.87.47-.48,0-.93-.33-.93-.91,0-.85.69-1.06,1.64-1.06h.15v-.11c0-.31-.15-.59-.58-.59-.38,0-.71.18-.85.3l-.04-.6ZM85.53,44.73h-.07c-.64,0-1.02.13-1.02.59,0,.28.19.48.48.48.45,0,.61-.33.61-.89v-.18h0Z"/>
      <path class="st1" d="M87.1,43.65c0-.19,0-.37-.02-.51h.68c0,.19.02.38.02.57h.01c.09-.24.33-.62.79-.62.05,0,.09.01.13.02v.7c-.07-.02-.13-.03-.21-.03-.31,0-.65.19-.65.77v1.7h-.75v-2.6h0Z"/>
      <path class="st1" d="M91.84,41.72v4c0,.22,0,.42.02.53h-.7c-.01-.09-.02-.27-.02-.48h-.02c-.12.27-.34.53-.83.53-.77,0-1.09-.74-1.09-1.6,0-1.02.4-1.61,1.08-1.61.45,0,.7.25.8.5h.01v-1.87h.75ZM90.5,45.75c.44,0,.59-.48.59-1.06s-.17-1.05-.58-1.05-.56.4-.56,1.03c0,.72.11,1.08.55,1.08h0Z"/>
    </g>
    <path class="st1" d="M50.42,21.7c.05,0,.1,0,.15.03.04.02.08.04.11.07.03.03.05.07.07.11.02.04.02.08.02.13,0,.07-.01.13-.04.18s-.08.09-.15.12h0s.06.03.08.05c.02.02.04.04.05.06.01.03.02.05.03.08,0,.03.01.06.01.09,0,.02,0,.04,0,.07,0,.03,0,.05,0,.08,0,.03,0,.05.01.08,0,.02.02.04.03.06h-.27s-.02-.08-.03-.14c0-.05,0-.1-.01-.15,0-.06-.03-.11-.06-.14-.03-.03-.08-.04-.14-.04h-.26v.47h-.26v-1.2h.65ZM50.32,22.24c.06,0,.11-.01.14-.04.03-.03.05-.07.05-.13s-.02-.1-.05-.13c-.03-.03-.08-.04-.14-.04h-.29v.34h.29Z"/>
    <path class="st1" d="M50.26,23.37c-.59,0-1.07-.48-1.07-1.07s.48-1.07,1.07-1.07,1.07.48,1.07,1.07-.48,1.07-1.07,1.07ZM50.26,21.29c-.56,0-1.02.46-1.02,1.02s.46,1.02,1.02,1.02,1.02-.46,1.02-1.02-.46-1.02-1.02-1.02Z"/>
  </g>
  <g>
    <rect class="st5" x="52.55" y="20.18" width="83.49" height="12.87"/>
    <g>
      <path class="st2" d="M101.41,29.45c.03.15.02.26,0,.42h-1.89c-.03-.15-.03-.27,0-.4l.55-.03v-2.38c0-.22-.09-.4-.21-.52-.4-.37-1.09-.07-1.63.33l-.03,2.58.65.02c.05.08.06.32-.03.4h-1.9c-.04-.14-.03-.25,0-.4l.56-.04v-2.92s-.68-.09-.68-.09c-.06-.06-.04-.3.03-.36l1.28-.24.1.54c.36-.19.68-.41,1.07-.52.57-.16,1.11.11,1.4.6.42-.26.8-.52,1.27-.61.74-.14,1.45.46,1.45,1.22v2.39s.59.02.59.02l-.02.41h-1.83c-.08-.05-.08-.31,0-.36.14-.09.32-.05.52-.07v-2.39c0-.22-.14-.44-.28-.53-.44-.31-1.01-.02-1.54.35v2.57s.61.02.61.02Z"/>
      <path class="st4" d="M124.9,27.17c0-.24-.1-.47-.22-.6-.4-.43-1.25-.09-1.76.38v2.44c.23.07.41.04.64.05.02.16.02.27-.01.43h-1.96s0-.41,0-.41l.59-.04v-2.92s-.67-.04-.67-.04c-.1,0-.09-.3-.03-.4l1.31-.25.11.58.69-.36c.37-.19.82-.32,1.24-.17.58.22.88.79.86,1.39l-.05,2.16.6.05c.02.14.02.26,0,.4h-1.9c-.02-.14,0-.25.02-.4l.57-.04v-2.24Z"/>
      <path class="st2" d="M90.42,27.08c0-.26-.14-.46-.27-.56-.43-.37-1.2,0-1.72.43v2.45s.65.03.65.03c.06.13.06.3-.01.44h-1.93c-.04-.12-.05-.33.01-.4.16-.08.34-.04.55-.05v-2.93s-.67-.05-.67-.05c-.09-.03-.07-.34.01-.39l1.25-.26.15.61.92-.5c.38-.2.79-.19,1.2.06.26.16.6.53.61.95v2.49s.55.07.55.07c.08.07.06.29,0,.38l-1.84.02c-.03-.15-.03-.27,0-.41l.55-.02v-2.35Z"/>
      <path class="st2" d="M95.92,29.38c.19.11.41,0,.64.07.11.04.1.36-.02.4-.33.11-.66.11-1,.14l-.35-.5c-.76.46-1.5.74-2.14.22-.3-.25-.49-.64-.49-1.07v-2.24s-.54-.03-.54-.03c-.02-.15-.02-.26.01-.42l1.3-.05v2.86c.01.47.45.74.89.67.36-.06.67-.23.96-.46v-2.56c-.22-.04-.36-.04-.58-.03v-.47c.45.03.87.04,1.34-.03v3.5Z"/>
      <path class="st2" d="M76.73,23.24c.01,1.3,0,2.59-.05,3.88v2.31s.72.03.72.03c.02.13.04.3-.05.4h-2.04c-.06-.15-.05-.26-.02-.41l.62-.04v-1.67c.06-1.27.07-2.54.05-3.82l-.73-.06c-.06-.08-.05-.28,0-.4l1.49-.23Z"/>
      <path class="st4" d="M119,29.35l-.02-2.84c-.22-.04-.43-.08-.63-.11l.02-.42.66-.06c.02-.32-.06-.65.08-.9.1-.18.4-.25.63-.34l.03,1.22,1.38.05c.12.03.1.44-.02.46l-1.4.03-.02,2.41c0,.36.27.65.62.6l.9-.13c.06.09.1.37.01.44-.54.18-1.09.27-1.68.17-.2-.03-.57-.3-.57-.56Z"/>
      <path class="st2" d="M116.44,29.43l.86.03c.03.14.03.26,0,.41h-2.17s0-.41,0-.41l.59-.05v-2.95s-.62-.03-.62-.03c-.11,0-.1-.37.03-.39l1.24-.24.08,1.28c.27-.43.46-.89.9-1.18.27-.18.68-.12.95.02-.02.24-.06.56-.31.65-.15.05-.46-.13-.65.02-.41.34-.74.87-.84,1.41l-.04,1.42Z"/>
      <path class="st4" d="M131.87,29.43l.89.03c.02.13.02.25-.02.4l-2.17.02c-.03-.17-.02-.27,0-.43l.59-.04v-2.95s-.62-.03-.62-.03c-.1,0-.09-.3-.04-.4l1.3-.23.07,1.27.6-.94c.26-.41.84-.45,1.25-.21-.03.24-.08.55-.29.64-.17.07-.49-.1-.65.03-.41.31-.71.79-.83,1.29l-.09,1.55Z"/>
      <path class="st0" d="M84.77,29.87v-.41s.66-.02.66-.02v-2.95s-.66-.05-.66-.05c-.1,0-.09-.3-.04-.4l1.43-.24v3.64s.64,0,.64,0c.03.13.04.28-.03.42h-2.01Z"/>
      <path class="st0" d="M85.55,23.92c.31-.11.58.06.65.3.09.28-.04.57-.31.66-.25.09-.53-.03-.64-.26-.13-.27-.03-.6.3-.71Z"/>
      <path class="st2" d="M75.93,27.75l.04-3.82.03,3.67c0,.07-.04.12-.07.15Z"/>
      <path class="st4" d="M119,29.35l-.06-2.85h-.59s0-.09,0-.1l.67.03-.02,2.92Z"/>
      <path class="st2" d="M84.45,29.31l-.88.12c-.33.04-.6-.2-.6-.54v-2.47s1.44-.01,1.44-.01c.06-.16.08-.3.04-.49h-1.44s-.02-1.23-.02-1.23c-.21.06-.51.16-.66.33l-.09.92-.61.02c-.04.14-.07.3,0,.47h.62s-.02,2.86-.02,2.86c0,.33.36.59.65.63.55.08,1.08,0,1.6-.18.1-.04.08-.39-.03-.42Z"/>
      <path class="st2" d="M109.34,23.87c-.48-.12-.95-.14-1.45-.14h-1.56c-.03.19-.03.32.02.47l.61.03v5.15s-.63.07-.63.07c-.03.16-.03.27,0,.43h2.38c.07-.1.08-.4-.01-.41l-1.02-.08.02-1.88c.47,0,.91,0,1.37-.11.86-.21,1.49-.91,1.55-1.8.05-.84-.47-1.53-1.27-1.73ZM109.83,25.7c-.02.43-.25.87-.71,1.11-.45.24-.96.27-1.42.16v-2.77c.56-.08,1.13-.04,1.6.27.41.27.56.76.54,1.23Z"/>
      <path class="st2" d="M74.91,24.97c-.3-1-1.32-1.23-2.36-1.23h-1.85c-.05.18-.05.32,0,.47l.62.03v5.14l-.62.06c-.04.16-.04.28,0,.44l2.39-.02c.04-.1.06-.33,0-.42l-1.01-.06v-1.86c.45,0,.84,0,1.27-.09,1.15-.22,1.9-1.34,1.57-2.46ZM73.8,26.59c-.48.45-1.13.51-1.73.38v-2.77c.57-.09,1.22-.07,1.69.33.59.5.6,1.51.03,2.05Z"/>
      <path class="st2" d="M114.88,29.45h-.69s-.03-2.49-.03-2.49c0-.76-.66-1.24-1.4-1.16-.61.07-1.12.37-1.52.82.1.15.17.26.31.39.3-.29.61-.56,1.01-.63.4-.07.74.14.84.52.08.29.1.59.05.89-.95-.05-1.91.02-2.36.82-.21.38-.12.81.22,1.09.34.28.78.39,1.17.24l.97-.37.36.42,1.06-.13c.03-.14.03-.26,0-.41ZM112.35,29.45c-.27,0-.52-.18-.57-.41-.05-.22.07-.5.29-.64.4-.25.9-.24,1.39-.19l.03.82c-.33.25-.71.41-1.13.41Z"/>
      <path class="st2" d="M81.41,29.47l-.66-.03-.02-2.44c-.07-.82-.71-1.32-1.51-1.19-.56.09-1.04.39-1.42.81.08.18.2.32.36.36.27-.32.59-.56.99-.61.39-.05.7.14.8.5.09.31.12.64.07.93-.59-.03-1.09-.06-1.6.15-.47.2-.93.61-.86,1.16.08.63.76.96,1.36.84.42-.08.72-.21,1.07-.4l.4.44,1.02-.15c.08-.01.08-.37,0-.37ZM80.03,29.06c-.63.45-1.5.58-1.67.06-.08-.24,0-.56.25-.71.42-.26.94-.24,1.43-.2v.84Z"/>
      <path class="st4" d="M129.87,29.15c-.42.14-.85.3-1.3.29-.87-.03-1.19-.69-1.17-1.56l2.33-.02c.57,0,.42-1.35-.2-1.79-.75-.53-1.79-.29-2.37.39-.41.48-.54,1.05-.54,1.68,0,1.01.73,1.8,1.76,1.82.56.01,1.11-.14,1.62-.38.03-.15-.01-.36-.13-.43ZM128.09,26.36c.26-.16.61-.12.87.01.29.26.43.6.41,1.05l-1.92.02c.02-.44.25-.86.64-1.09Z"/>
    </g>
  </g>
</svg>