<?xml version="1.0" encoding="UTF-8"?>
<svg id="Layer_1" xmlns="http://www.w3.org/2000/svg" version="1.1" viewBox="0 0 14.8 26.52">
  <!-- Generator: Adobe Illustrator 30.5.1, SVG Export Plug-In . SVG Version: 2.1.4 Build 3)  -->
  <defs>
    <style>
      .st0 {
        fill: #f4f5f5;
      }

      .st1 {
        fill: #fefeff;
      }

      .st2 {
        fill: #f7f7f8;
      }

      .st3 {
        fill: #fafafb;
      }

      .st4 {
        fill: #eeeeef;
      }

      .st5 {
        fill: #3899d0;
      }

      .st6 {
        fill: #f2f2f2;
      }

      .st7 {
        fill: #fefefe;
      }

      .st8 {
        fill: #389ad1;
      }

      .st9, .st10 {
        fill: #fff;
      }

      .st11 {
        fill: #f9fafa;
      }

      .st12 {
        fill: #030504;
      }

      .st13 {
        fill: #3a99d0;
      }

      .st14 {
        fill: #040505;
      }

      .st15 {
        fill: #f7f7f7;
      }

      .st16 {
        fill: #fcfdfe;
      }

      .st17 {
        fill: #050606;
      }

      .st18 {
        fill: #f8f8f9;
      }

      .st19 {
        fill: #3999d0;
      }

      .st20 {
        fill: #3998cf;
      }

      .st10 {
        stroke: #212020;
        stroke-miterlimit: 10;
        stroke-width: .02px;
      }

      .st21 {
        fill: #020404;
      }

      .st22 {
        fill: #030404;
      }

      .st23 {
        fill: #f5f5f5;
      }

      .st24 {
        fill: #020303;
      }

      .st25 {
        fill: #3899d1;
      }

      .st26 {
        fill: #292828;
      }

      .st27 {
        fill: #3898cf;
      }

      .st28 {
        fill: #eff2f2;
      }
    </style>
  </defs>
  <g id="Generative_Object">
    <path class="st19" d="M2.02,26.51h-.41c-.23-.03-.45-.1-.64-.24l.15-.31c.36.31,1.15.34,1.15-.01,0-.29-.52-.26-.91-.44-.11-.05-.22-.11-.28-.22-.16-.3-.03-.65.29-.78.38-.16.83-.12,1.2.09l-.13.31c-.34-.23-1.01-.23-1.03.08,0,.09.05.17.14.21.4.19,1.09.12,1.12.7.02.39-.38.61-.64.61Z"/>
    <path class="st27" d="M4.77,24.67c-.47-.39-1.35-.33-1.71.26-.19.32-.21.7-.04,1.03.17.32.47.51.82.56h.37c.37-.05.71-.27.86-.62.18-.43.06-.93-.29-1.22ZM4.02,26.2c-.4,0-.73-.33-.73-.73s.33-.73.73-.73.73.33.73.73-.33.73-.73.73Z"/>
    <path class="st27" d="M11.42,24.84c-.14-.27-.42-.42-.72-.42-.61,0-.9.5-.9,1.09,0,.49.25.92.73,1h.33c.28-.05.5-.23.61-.51.15-.37.14-.81-.05-1.17ZM10.72,26.2c-.19,0-.35-.09-.44-.27-.12-.24-.11-.7.02-.93.09-.15.23-.25.4-.24.15,0,.31.1.39.26.2.45.11,1.17-.37,1.19Z"/>
    <path class="st20" d="M13.5,24.93c-.13-.31-.4-.5-.73-.51-.3-.01-.59.12-.75.38-.23.38-.24.96-.02,1.33.13.21.32.34.56.39h.31c.29-.05.53-.23.64-.52.13-.34.13-.73-.01-1.07ZM13.18,25.82c-.04.14-.12.27-.26.33-.25.12-.52,0-.61-.25-.17-.44-.07-1.15.42-1.15.46,0,.57.62.45,1.07Z"/>
    <g>
      <path class="st25" d="M3.41,22.77c-.27.46-1.19.42-1.62.08l.15-.31c.31.26,1,.36,1.14.07.06-.13-.03-.27-.16-.31l-.61-.17c-.14-.04-.27-.1-.37-.21-.12-.14-.13-.33-.07-.52.17-.49,1.07-.51,1.52-.23l-.14.31c-.35-.24-1.01-.24-1.03.08,0,.1.05.19.15.22l.48.14c.17.05.36.09.49.23.16.16.18.43.06.62Z"/>
      <path class="st27" d="M6.23,26.5v-.27s.71-.66.71-.66c.19-.18.47-.37.34-.65-.12-.25-.64-.24-.84.05l-.29-.2c.15-.2.37-.32.62-.35.45-.05.91.09.93.56,0,.22-.09.42-.25.57l-.67.61h.99s0,.33,0,.33h-1.54Z"/>
      <polygon class="st27" points="8.36 26.49 9.16 24.77 8.34 24.77 8.34 25.12 7.98 25.12 7.98 24.45 9.6 24.45 9.6 24.7 8.79 26.5 8.36 26.49"/>
      <polygon class="st13" points="14.21 26.5 14.22 24.77 13.78 24.77 13.78 24.45 14.6 24.45 14.6 26.5 14.21 26.5"/>
      <polygon class="st8" points="13.39 23.07 13.39 21.34 12.96 21.34 12.96 21.02 13.78 21.03 13.78 23.06 13.39 23.07"/>
      <rect class="st25" x=".18" y="21.85" width="2.05" height=".4" transform="translate(-20.84 23.25) rotate(-89.99)"/>
      <rect class="st5" x="-.65" y="25.28" width="2.05" height=".39" transform="translate(-25.1 25.85) rotate(-90)"/>
      <path class="st25" d="M10.39,21.17c-.32-.25-.8-.24-1.1.04-.35.32-.39.97-.2,1.38.14.32.44.52.81.51.36-.01.64-.22.77-.55.17-.43.11-1.09-.26-1.38ZM9.87,22.77c-.19,0-.35-.11-.43-.3-.11-.27-.1-.59,0-.86.08-.18.24-.29.42-.29.19,0,.34.11.41.3.18.46.06,1.14-.41,1.15Z"/>
      <path class="st25" d="M5.37,21.1c-.28-.13-.58-.14-.88-.06-.62.17-.94.83-.68,1.42.19.44.64.67,1.12.64.42-.03.81-.26.96-.67.2-.52-.02-1.1-.52-1.33ZM4.84,22.77c-.4,0-.73-.33-.73-.73s.33-.73.73-.73.73.33.73.73-.33.73-.73.73Z"/>
      <path class="st25" d="M8.64,21.58c-.11-.35-.4-.56-.75-.58-.25-.01-.49.03-.68.2-.25.23-.26.63-.04.88.29.29.84.31,1.14.01,0,.2-.05.43-.23.56-.24.18-.55.16-.82.02l-.15.3c.31.15.68.17,1,.05.56-.21.68-.92.52-1.45ZM7.98,21.97c-.14.04-.29.03-.41-.03-.12-.06-.17-.17-.17-.29,0-.12.04-.24.16-.3.14-.08.33-.08.47-.01.14.06.21.19.2.33,0,.13-.1.26-.25.3Z"/>
      <path class="st25" d="M12.69,21.55c-.14-.36-.46-.57-.84-.55-.32.02-.59.2-.72.49-.09.19-.11.39-.11.61,0,.54.31,1,.88,1.01.36,0,.64-.19.78-.51.14-.33.14-.71.01-1.04ZM12.31,22.48c-.08.19-.25.29-.43.29-.19,0-.35-.13-.41-.32-.16-.47-.04-1.12.41-1.13.17,0,.34.09.41.25.13.28.14.61.02.91Z"/>
    </g>
    <g>
      <polygon class="st10" points="14.79 0 14.79 18.42 0 18.42 0 5.21 0 0 14.79 0"/>
      <g>
        <path class="st22" d="M6.56,13.47l.83,1.17h-.57s-.6-.88-.6-.88c0,.31,0,.58.03.88h-.53c.04-.67.04-1.32,0-2,.18.01.34.02.52,0l-.02.89c.28-.28.51-.58.76-.89h.37s-.44.46-.44.46l-.34.37Z"/>
        <path class="st22" d="M4.73,12.65l-.03,1.07c0,.15,0,.28-.04.42-.07.26-.26.45-.52.51s-.55.05-.81-.04c-.29-.1-.45-.35-.46-.65l-.02-1.31c.19.01.35.02.52,0-.03.4-.04.78-.04,1.17,0,.36.14.65.52.66.16,0,.31-.03.42-.14s.16-.29.16-.46c.02-.41,0-.81,0-1.22h.31Z"/>
        <path class="st22" d="M11.61,14.59c-.31.15-.67.12-.96-.04l.09-.36s.07-.02.07,0c.03.07.05.14.1.19.12.12.31.15.47.09.11-.04.18-.13.19-.23.02-.12-.04-.23-.15-.28l-.36-.18c-.12-.06-.25-.13-.32-.26-.16-.27-.08-.64.2-.8s.64-.14.92.03l-.08.28s-.03.03-.04.03c-.06,0-.08-.3-.44-.26-.12.01-.22.08-.25.18-.03.12.02.25.13.31l.35.17c.13.07.28.14.36.27.18.3.05.7-.28.85Z"/>
        <path class="st22" d="M2.8,16.56l-.07-.72-.34.7s-.07.03-.09.01l-.35-.69-.06.7c-.06,0-.11,0-.16,0l.16-1.09c.06-.01.1,0,.15,0l.37.74.36-.74c.05-.02.1-.01.16,0l.14,1.09h-.27Z"/>
        <path class="st12" d="M9.58,17.99l-.07-.72-.33.69s-.08.04-.09,0l-.33-.68-.07.69c-.05,0-.1,0-.16,0l.16-1.09c.06,0,.11-.01.16,0l.36.72.36-.73h.15s.14,1.09.14,1.09h-.27Z"/>
        <path class="st24" d="M9.8,16.56l-.07-.71-.33.67s-.02.03-.03.03c-.02,0-.05,0-.06-.02l-.34-.68-.07.7c-.06,0-.11.01-.16,0l.16-1.08c.06,0,.1,0,.15,0l.37.74.36-.74c.05-.01.1-.01.16,0l.14,1.09h-.27Z"/>
        <path class="st22" d="M12.07,16.54c-.08.06-.16,0-.22-.06l-.62-.68v.75c-.05,0-.11,0-.16,0v-1.09s.18,0,.18,0l.68.73v-.72s.09,0,.15,0v1.08Z"/>
        <path class="st22" d="M5.35,16.55c-.05.02-.1.01-.15,0l-.7-.75v.75s-.16,0-.16,0v-1.09c.07,0,.15-.02.19,0l.67.71v-.71s.09-.01.15,0v1.08Z"/>
        <path class="st22" d="M7.48,16.44v-.38s.25,0,.25,0v.44c-.2.07-.41.09-.62.06-.28-.05-.47-.28-.46-.56s.22-.51.51-.55c.19-.03.38-.02.55.09-.02.06-.03.12-.06.18-.09-.13-.23-.19-.39-.17-.26.04-.38.34-.32.62.05.24.3.37.54.28Z"/>
        <path class="st14" d="M10.87,16.05h-.38s0,.39,0,.39l.38-.03v.15s-.64,0-.64,0v-1.1s.64,0,.64,0c0,.05,0,.09,0,.15l-.37-.02v.33s.37-.02.37-.02v.15Z"/>
        <path class="st14" d="M8.6,16.05l-.37-.02v.4s.37-.03.37-.03c0,.05,0,.09,0,.15h-.63s0-1.1,0-1.1h.63s0,.14,0,.14l-.36-.02v.34s.36-.02.36-.02v.15Z"/>
        <polygon class="st14" points="8.4 17.48 8.03 17.47 8.03 17.87 8.4 17.84 8.4 17.99 7.77 17.99 7.77 16.89 8.39 16.88 8.4 17.03 8.03 17.01 8.03 17.35 8.39 17.33 8.4 17.48"/>
        <path class="st22" d="M4.68,17.95c-.17.09-.37.08-.54,0l.05-.21c.07,0,.04.13.2.17.08.02.16,0,.21-.06.06-.08.04-.19-.05-.23l-.29-.16c-.12-.07-.15-.21-.11-.35.03-.1.12-.2.25-.23s.27-.01.38.07c-.01.06-.03.12-.07.18-.05-.13-.17-.19-.29-.14-.05.02-.08.07-.08.12,0,.05.02.1.07.13l.23.12c.12.06.2.16.2.28s-.04.25-.17.31Z"/>
        <path class="st12" d="M10.57,17.92c-.18.12-.4.11-.58.01.02-.08.02-.15.07-.23.05.14.16.23.3.19.07-.02.11-.07.12-.13,0-.07-.02-.13-.08-.16l-.22-.11c-.12-.06-.19-.16-.19-.29s.06-.25.19-.3c.15-.07.34-.05.46.05-.03.07-.03.11-.08.18-.03-.08-.08-.13-.14-.15s-.16,0-.21.06c-.05.08-.01.17.07.21l.28.15c.1.05.13.16.13.25,0,.09-.03.2-.13.27Z"/>
        <path class="st12" d="M6.5,17.95c-.17.09-.37.08-.54-.02.02-.08.03-.15.07-.22.04.09.08.15.14.18.08.03.17.03.23-.03.08-.07.06-.2-.03-.25l-.2-.11c-.13-.07-.22-.16-.21-.3s.07-.26.2-.31c.15-.06.33-.04.45.05l-.07.18c-.04-.08-.08-.13-.15-.15s-.15,0-.2.05c-.05.07-.03.15.03.2.14.11.42.14.43.39,0,.13-.05.26-.17.33Z"/>
        <path class="st14" d="M5.87,16.9l-.35.62v.47s-.26,0-.26,0v-.46s-.35-.64-.35-.64h.31s.24.48.24.48l.24-.47s.09-.01.17,0Z"/>
        <path class="st12" d="M12.8,16.56h-.27s0-.97,0-.97h-.3s0-.13,0-.13h.84c.01.05.01.09,0,.14l-.29-.02v.97Z"/>
        <polygon class="st17" points="7.32 17.99 7.05 17.99 7.06 17.01 6.76 17.03 6.77 16.89 7.6 16.88 7.61 17.03 7.32 17.01 7.32 17.99"/>
        <g>
          <path class="st22" d="M9.41,14.65l-.2-.59h-.7s-.21.58-.21.58h-.31c.31-.67.59-1.33.86-2.01h.26s.69,1.65.69,1.65l.16.37h-.54Z"/>
          <polygon class="st7" points="9.13 13.86 8.59 13.86 8.87 13.21 9.13 13.86"/>
        </g>
        <g>
          <polygon class="st22" points="3.8 16.23 3.43 16.23 3.31 16.55 3.14 16.56 3.6 15.45 3.75 15.45 4.21 16.56 3.91 16.55 3.8 16.23"/>
          <path class="st3" d="M3.75,16.11c-.1.02-.18,0-.28,0l.14-.36.14.35Z"/>
        </g>
        <g>
          <path class="st22" d="M6.18,16.24h-.38s-.12.32-.12.32h-.17s.46-1.09.46-1.09c.02-.04.12-.02.16,0l.45,1.09h-.3s-.1-.31-.1-.31Z"/>
          <polygon class="st11" points="6.12 16.12 5.84 16.12 5.98 15.76 6.12 16.12"/>
        </g>
        <g>
          <polygon class="st21" points="5.59 10.39 4.9 9.68 4.91 6.8 7.03 9.44 11.2 3.8 11.2 5.89 9.01 9.04 7.03 11.89 5.59 10.39"/>
          <g>
            <path class="st22" d="M9.57,4.97s0,.06,0,.09c-.03.06-.08.09-.15.09l-.06.13c-.29-.1-.58-.17-.89-.22-.84-.12-1.68-.1-2.51.08l-.46.13-.05-.12c-.08,0-.13-.03-.16-.09-.03-.07,0-.13.05-.2l-.45-1.11c-.02-.06.02-.11.04-.17-.09.01-.16-.01-.19-.08-.03-.06,0-.13.04-.17s.11-.02.18,0c.05.01.06-.07.05-.11,0-.04-.01-.07-.04-.07-.1,0-.14.15-.27.08-.07-.04-.1-.13-.05-.2.04-.06.13-.09.2-.03.04.03.07.06.13.04-.01-.08,0-.16,0-.25,0-.04-.07-.03-.1,0-.05.07-.16.05-.21,0-.06-.06-.05-.15,0-.2.15-.13.26.13.33.05.02-.03.05-.1.06-.13,0-.05-.09-.06-.13-.04-.08.02-.15-.06-.15-.12-.01-.09.04-.15.12-.17.06-.01.15.02.16.1,0,.04.04.12.09.08.04-.03.12-.1.14-.14.01-.06-.09-.06-.12-.07-.09-.02-.12-.13-.08-.2.03-.06.12-.1.19-.06.07.03.1.1.08.18,0,.03.03.08.06.06.04-.03.12-.04.15-.07.04-.05-.02-.09-.06-.1-.08-.04-.07-.15-.03-.2.05-.07.14-.07.2-.03.07.05.08.14.03.21-.02.02-.02.03-.02.05,0,.07.13,0,.29.02.01-.04,0-.07-.02-.09-.07-.06-.07-.16,0-.22.05-.05.15-.05.2.01.04.05.06.16-.02.2-.03.02-.06.09-.03.1l.22.06c.07.02-.09-.19.05-.27.08-.05.17-.02.21.04.04.07.02.18-.07.2-.03,0-.08.06-.05.08.08.06.19.09.29.11.07,0-.12-.23.05-.3.07-.03.16,0,.2.07.03.06,0,.16-.08.19-.03,0-.05.06-.03.07.06.03.13.02.21.03v-.16s.04-.07.07-.1c-.05-.05-.11-.09-.14-.16-.09-.2-.01-.44.18-.55.06-.04.11-.09.11-.16v-.22c-.1,0-.14.05-.22.11v-.35c.07.06.16.14.23.11.06-.09,0-.2-.09-.27.13-.01.24-.02.37,0-.1.07-.16.19-.09.27.12.03.15-.1.23-.09v.33c-.08-.04-.12-.1-.23-.11-.02.23-.02.3.15.42.12.08.17.21.17.34s-.07.24-.16.34c.04.07.07.16.05.26.08,0,.15,0,.22-.03.02-.01,0-.06-.03-.07-.09-.03-.11-.13-.07-.21.03-.06.13-.1.21-.04.05.03.09.13.03.2-.02.02-.03.08,0,.1.09-.02.22-.05.29-.11.05-.05-.04-.08-.07-.1-.08-.03-.08-.14-.04-.2s.13-.08.2-.03c.14.09,0,.21.05.28l.22-.06s0-.08-.02-.09c-.08-.05-.07-.16,0-.22.05-.05.14-.05.2.02.04.05.06.15,0,.2-.02.02-.03.02-.04.04,0,.02,0,.05.03.05l.23.02s.04-.05.02-.07c-.06-.07-.05-.16.01-.21.07-.05.16-.04.21.03.11.15-.15.24-.09.29.04.04.11.06.16.08.09.04-.02-.23.16-.26.08-.01.16.04.17.12s-.03.16-.13.16c-.04,0-.1.04-.07.07.04.04.09.11.14.14s.08-.05.08-.09c0-.09.11-.13.19-.1.06.02.11.1.08.18-.05.16-.21.04-.27.12-.01.02.03.16.08.16.04,0,.07-.01.09-.05.05-.08.15-.07.22-.02.05.05.06.14,0,.2-.13.14-.23-.05-.31,0v.25s.09,0,.11-.02c.06-.07.17-.05.21.01.05.07.03.17-.04.21-.16.09-.22-.13-.3-.06-.04.03-.02.19.03.17.07-.03.14-.03.19.02.04.05.05.12.02.17-.04.06-.1.07-.18.06.01.05.06.11.04.16l-.45,1.13s.04.06.05.08Z"/>
            <g>
              <path class="st26" d="M9.57,5.06v-.09s.02.06,0,.09Z"/>
              <path class="st9" d="M6.42,3.6l-.2.05c-.04-.2-.11-.43-.28-.42-.13.18,0,.42-.04.48-.03.05-.22,0-.31.14-.05.07-.03.17.02.25.04.06.16.1.23.05-.05-.06-.05-.17.03-.18.14-.02.24.15.2.28-.06.19-.27.32-.47.29-.18-.03-.3-.16-.35-.32.2-.04.34.25.4.25.01,0,.04-.02.05-.03l-.4-.89c-.04.22.1.43-.11.5-.11-.2-.08-.44.06-.62-.11-.15-.15-.31-.16-.49,0-.33.16-.62.48-.75.19-.08.45-.1.66-.02.28.11.56.22.87.22v.79s-.15,0-.15,0c-.02,0-.04.01-.05.02,0,0-.01.04,0,.04.23.02.4.21.35.44-.18,0-.36-.08-.41-.26v-.06s-.06-.01-.09,0v.88s.04.06.06.05c0-.21.22-.35.43-.38.02.14-.04.25-.13.35-.14.14-.34.19-.53.12-.26-.09-.39-.47-.24-.53.03-.01.07-.02.1.02.03.04.02.09.02.15.08-.01.14-.07.16-.14.03-.08.03-.16-.02-.23-.04-.06-.12-.08-.2-.06Z"/>
              <path class="st9" d="M8.9,3.22c-.13.04-.2.16-.24.29l-.05.15c-.12-.06-.27-.1-.38-.02-.07.06-.07.16-.04.24.03.07.09.13.17.15,0-.06,0-.12.02-.15.03-.04.08-.03.11-.01.13.07.01.38-.18.49-.15.09-.34.09-.5,0-.14-.08-.25-.24-.24-.43.14,0,.25.08.35.17.12.12.06.25.13.21.02,0,.03-.04.03-.06v-.86s-.05-.02-.08-.01c-.03.21-.22.34-.43.32-.05-.23.12-.42.35-.44.03,0,.03-.06,0-.06h-.18s0-.79,0-.79c.31-.01.57-.1.85-.22.19-.08.43-.07.62-.01.36.11.57.43.54.79-.01.17-.04.33-.15.47.18.21.12.59.05.6-.02,0-.05,0-.07-.03-.1-.14.02-.32-.04-.47l-.4.9s.05.05.07.03l.22-.21s.11-.05.16-.02c-.06.12-.13.23-.25.29-.21.09-.47-.02-.56-.23-.03-.07-.03-.14,0-.21.02-.06.08-.11.16-.12.05,0,.08.04.08.07,0,.04,0,.08-.03.13.09.02.19,0,.23-.07.06-.08.06-.2,0-.27-.1-.1-.25-.05-.28-.1-.04-.06.09-.29-.05-.5Z"/>
              <path class="st9" d="M8.71,4.94l-.41-.04c-.07,0-.1-.08-.09-.14,0-.06.06-.11.13-.1l.39.05c.06,0,.1.06.1.11s-.03.13-.11.13Z"/>
              <path class="st9" d="M6.54,4.9l-.37.04c-.08,0-.13-.04-.14-.11s.04-.12.12-.13l.35-.04c.07,0,.13.03.14.09.01.05-.02.14-.1.14Z"/>
              <path class="st15" d="M7.78,1.72h-.71s0-.08,0-.12h.29s0-.28,0-.28c0-.03.09-.03.09-.01v.29s.31,0,.31,0c0,.04,0,.08,0,.12Z"/>
              <polygon class="st16" points="7.42 4.87 7.24 4.68 7.42 4.48 7.61 4.68 7.42 4.87"/>
              <path class="st1" d="M7.65,3.19s-.03,0-.05,0v-1.13s.05.06.05.12v1.02Z"/>
              <path class="st28" d="M7.18,3.18v-1.01c0-.05.02-.1.06-.12v1.14s-.04,0-.06-.01Z"/>
              <circle class="st23" cx="5.4" cy="5.01" r=".09"/>
              <circle class="st0" cx="7.42" cy="2.07" r=".09"/>
              <circle class="st15" cx="7.42" cy="3.06" r=".09"/>
              <path class="st2" d="M7.46,2.9s-.05.02-.07,0c-.05-.03-.07-.09-.04-.14.03-.04.09-.05.14,0,.04.04.04.11-.03.15Z"/>
              <path class="st18" d="M9.52,4.98s.02.05,0,.06l-.04.06s-.07,0-.1,0c-.04-.03-.05-.08-.04-.11.02-.04.05-.07.09-.06.04,0,.07.02.09.06Z"/>
              <circle class="st6" cx="7.42" cy="2.57" r=".09"/>
              <circle class="st4" cx="7.42" cy="2.33" r=".09"/>
              <path class="st26" d="M9.49,5.09s-.07.02-.1,0h.1Z"/>
              <path class="st26" d="M9.52,5.04s0-.05,0-.06c.02,0,.02.01.02.03s0,.03-.03.03Z"/>
            </g>
          </g>
        </g>
      </g>
    </g>
  </g>
</svg>